<?xml version="1.0" encoding="utf-8"?>
<!-- Generator: Adobe Illustrator 25.2.3, SVG Export Plug-In . SVG Version: 6.00 Build 0)  -->
<svg version="1.1" id="Camada_1" xmlns="http://www.w3.org/2000/svg" xmlns:xlink="http://www.w3.org/1999/xlink" x="0px" y="0px"
	 viewBox="0 0 50 50" style="enable-background:new 0 0 50 50;" xml:space="preserve">
<style type="text/css">
	.st0{fill:#CDBE91;}
</style>
<path class="st0" d="M18.8,27.1c0.4,0,0.7,0,0.9,0.2v-7.7c-0.4,0-0.5,0-0.9,0c-8.4,0-15.2,6.8-15.2,15.2S10.4,50,18.8,50
	s15.2-6.8,15.2-15.2c0-0.2,0-11.1,0-20.5c2.3,3.6,6.4,6.1,11.2,6.1c0.4,0,0.9,0,1.3,0V12C40,11.4,34.8,6.4,34.1,0H27
	c0,0,0,34.8,0,35c0,4.3-3.8,7.7-8,7.7s-7.9-3.4-7.9-7.9S14.5,27.1,18.8,27.1z"/>
</svg>
