<?xml version="1.0" encoding="UTF-8"?>
<svg xmlns="http://www.w3.org/2000/svg" xmlns:xlink="http://www.w3.org/1999/xlink" viewBox="0 0 50 50" width="50px" height="50px">
<g>
<path style=" stroke:none;fill-rule:nonzero;fill:#eeeeee;fill-opacity:1;" d="M 42.296875 11.648438 C 41.621094 10.628906 40.664062 9.847656 39.53125 9.394531 C 37.066406 8.40625 34.945312 7.746094 33.050781 7.375 C 31.722656 7.113281 30.402344 7.769531 29.769531 9 L 29.613281 9.308594 C 28.210938 9.152344 26.71875 9.101562 25.019531 9.144531 C 23.277344 9.101562 21.78125 9.152344 20.378906 9.308594 L 20.21875 9 C 19.585938 7.769531 18.269531 7.113281 16.941406 7.375 C 15.046875 7.746094 12.925781 8.40625 10.460938 9.394531 C 9.328125 9.847656 8.371094 10.628906 7.695312 11.652344 C 2.972656 18.78125 1.121094 26.472656 2.039062 35.167969 C 2.070312 35.472656 2.242188 35.746094 2.5 35.910156 C 6.132812 38.199219 9.273438 39.765625 12.390625 40.84375 C 13.695312 41.300781 15.140625 40.789062 15.90625 39.617188 L 17.277344 37.515625 C 16.1875 37.101562 15.121094 36.613281 14.097656 36.03125 C 13.621094 35.757812 13.453125 35.148438 13.726562 34.667969 C 14 34.1875 14.609375 34.019531 15.089844 34.296875 C 18.132812 36.03125 21.570312 36.945312 25.03125 36.945312 C 28.496094 36.945312 31.933594 36.03125 34.972656 34.296875 C 35.453125 34.019531 36.0625 34.1875 36.339844 34.667969 C 36.609375 35.148438 36.445312 35.757812 35.964844 36.03125 C 34.910156 36.636719 33.804688 37.136719 32.675781 37.554688 L 34.085938 39.65625 C 34.664062 40.523438 35.625 41.015625 36.613281 41.015625 C 36.933594 41.015625 37.261719 40.960938 37.574219 40.855469 C 40.699219 39.773438 43.851562 38.203125 47.488281 35.910156 C 47.75 35.746094 47.917969 35.472656 47.949219 35.167969 C 48.867188 26.472656 47.019531 18.78125 42.296875 11.648438 Z M 18.609375 28.984375 C 16.683594 28.984375 15.097656 26.953125 15.097656 24.488281 C 15.097656 22.023438 16.683594 19.992188 18.609375 19.992188 C 20.535156 19.992188 22.117188 22.023438 22.117188 24.488281 C 22.117188 26.953125 20.535156 28.984375 18.609375 28.984375 Z M 31.601562 28.957031 C 29.691406 28.957031 28.121094 26.914062 28.121094 24.433594 C 28.121094 21.953125 29.691406 19.914062 31.601562 19.914062 C 33.507812 19.914062 35.078125 21.953125 35.078125 24.433594 C 35.078125 26.914062 33.507812 28.957031 31.601562 28.957031 Z M 31.601562 28.957031 "/>
</g>
</svg>
