<?xml version="1.0" encoding="utf-8"?>
<!-- Generator: Adobe Illustrator 26.2.1, SVG Export Plug-In . SVG Version: 6.00 Build 0)  -->
<svg version="1.1" id="Camada_1" xmlns:svgjs="http://svgjs.com/svgjs"
	 xmlns="http://www.w3.org/2000/svg" xmlns:xlink="http://www.w3.org/1999/xlink" x="0px" y="0px" viewBox="0 0 512 512"
	 style="enable-background:new 0 0 512 512;" xml:space="preserve">
<style type="text/css">
	.st0{fill:#eeeeee;}
</style>
<path class="st0" d="M191.8,93.1c-19.6,0-35.4,15.9-35.4,35.4v253.8c0,19.6,15.9,35.4,35.4,35.4h128.4c19.6,0,35.4-15.9,35.4-35.4
	V128.6c0-19.6-15.9-35.4-35.4-35.4H191.8z M256,405.9c-11,0-20-9-20-20s9-20,20-20c11,0,20,9,20,20S267,405.9,256,405.9z
	 M323.1,338.2c0,6-5.1,10.8-11.3,10.8H200.2c-6.3,0-11.3-4.8-11.3-10.8V127.3c0-6,5.1-10.8,11.3-10.8h111.6
	c6.3,0,11.3,4.8,11.3,10.8V338.2z"/>
</svg>
